# xmcd
#
# Track frame offsets: 
#        150
#        15657
#        28422
#        45557
#        62067
#        76280
#        91460
#        104510
#        120645
#        135530
#        151997
#        166590
#
# Disc length: 2505 seconds
#
# Revision: 1
# Processed by: cddbd v1.4PL0 Copyright (c) Steve Scherf et al.
# Submitted via: ExactAudioCopy v0.90b4
#
DISCID=9209c70c
DTITLE=Jason Downs - White Boy With A Feather
DYEAR=2001
DGENRE=
TTITLE0=White Boy With A Feather
TTITLE1=Girls
TTITLE2=Trippin
TTITLE3=4 Chords
TTITLE4=Trouble
TTITLE5=Ecstacy
TTITLE6=Revenue
TTITLE7=One Of Those Days
TTITLE8=Hey
TTITLE9=Cherokee
TTITLE10=Goodnight
TTITLE11=Better Luck Next Time
EXTD=
EXTT0=
EXTT1=
EXTT2=
EXTT3=
EXTT4=
EXTT5=
EXTT6=
EXTT7=
EXTT8=
EXTT9=
EXTT10=
EXTT11=
PLAYORDER=
